<svg xmlns="http://www.w3.org/2000/svg" width="130" height="40" viewBox="0 0 130 40">
    <path fill="currentColor" fill-rule="evenodd" d="M129.491 7.002L119.32 33.61h-4.145l10.17-26.608h4.147zm-27.968 13.039c0-2.065 1.497-4.229 4.116-4.229 2.62 0 4.055 1.882 4.055 4.229 0 2.347-1.403 4.228-4.055 4.228-2.652 0-4.116-2.163-4.116-4.228zm.058-5.417v-1.492h-3.872V33.6h4.013v-7.955c.455.465 2.053 1.688 4.42 1.688 3.712 0 7.127-2.665 7.127-7.292 0-4.84-3.759-7.237-7.127-7.237-2.562 0-4.106 1.342-4.561 1.82zm-16.71 3.894c.112-.932 1.101-2.807 3.54-2.807 2.715 0 3.155 2.042 3.22 2.807h-6.76zm-3.997 1.579c0 4.13 3.085 7.236 7.678 7.236s6.552-3.133 6.552-3.133l-2.926-1.892s-.999 1.96-3.598 1.96c-2.677 0-3.754-2.195-3.754-3.033h10.607s.058-.606.058-.783v-.467c0-4.092-2.592-7.181-7.08-7.181-4.489 0-7.537 3.162-7.537 7.293zm-5.535-6.965l5.302 13.873h-4.306l-3.08-8.848H73.2l-3.07 8.848h-4.292l5.303-13.873h4.197zM54.327 20.25c0-1.984 1.143-3.715 3.78-3.715 2.635 0 3.579 2.25 3.579 3.854 0 1.605-.969 3.88-3.61 3.88-2.64 0-3.749-2.036-3.749-4.02zm.4-5.934c.106-.469.524-4.184 5.746-4.184h3.226l1.196-3.129h-4.367c-5.757 0-10.13 2.546-10.13 11.5 0 4.915 2.187 8.831 7.565 8.831 5.114 0 7.623-3.586 7.623-7.073 0-5.051-3.885-7.128-7.153-7.128a6.529 6.529 0 0 0-3.707 1.183zm-10.268-1.183h3.429v13.873h-4.014v-8.127l-3.89 4.884h-1.088l-.09-.11-3.831-4.707v8.06h-4.016V13.132h3.432l.088.104 4.985 5.751 4.995-5.855zm-20.545 8.09c0 1.897-1.103 3.204-3.239 3.204-2.065 0-2.24-1.166-2.24-1.61 0-1.026.969-1.71 3.277-1.912a22.248 22.248 0 0 1 1.928-.083h.274v.4zm3.758-1.51c0-.28-.004-.548-.016-.808-.196-4.32-2.1-6.1-6.21-6.1-2.783 0-4.593 1.09-5.23 1.534l1.084 2.834s1.692-1.382 3.83-1.382c3.025 0 2.726 2.399 2.726 2.399-1.035.009-9.266-.402-9.266 4.737 0 2.85 2.45 4.407 5.201 4.407 2.447 0 3.763-1.18 4.197-1.639.002.063.086 1.31.086 1.31h3.74s-.142-1.203-.142-3.088v-4.204zm-23.515-3.08v-6.278h2.05c1.457 0 3.808.856 3.808 3.152 0 2.315-2.351 3.125-3.865 3.125H4.157zM0 7.001h6.493c4.156 0 7.71 2.203 7.71 6.49 0 4.288-3.554 6.46-7.796 6.46h-2.25v7.053H0V7.002zM130 0v40V0zM0 0v40V0z"/>
</svg>
